<svg xmlns="http://www.w3.org/2000/svg" viewBox="0 0 24 24"><path d="M8 22c-.55 0-1.02-.196-1.412-.587A1.927 1.927 0 0 1 6 20c0-.55.196-1.021.588-1.413A1.925 1.925 0 0 1 8 18c.55 0 1.02.196 1.412.587.392.392.588.863.588 1.413s-.196 1.021-.588 1.413A1.925 1.925 0 0 1 8 22Zm10 0c-.55 0-1.02-.196-1.412-.587A1.927 1.927 0 0 1 16 20c0-.55.196-1.021.588-1.413A1.925 1.925 0 0 1 18 18c.55 0 1.021.196 1.413.587.391.392.587.863.587 1.413s-.196 1.021-.587 1.413A1.928 1.928 0 0 1 18 22ZM8 17c-.75 0-1.317-.33-1.7-.988-.383-.658-.4-1.312-.05-1.962L7.6 11.6 4 4H2.975a.926.926 0 0 1-.7-.288A.99.99 0 0 1 2 3c0-.283.096-.521.288-.713A.967.967 0 0 1 3 2h1.625c.183 0 .358.05.525.15a.93.93 0 0 1 .375.425L6.2 4h14.75c.45 0 .758.167.925.5.167.333.158.683-.025 1.05l-3.55 6.4a2.034 2.034 0 0 1-.725.775A1.93 1.93 0 0 1 16.55 13H9.1L8 15h11.025c.283 0 .517.096.7.287.183.192.275.43.275.713s-.096.52-.288.712A.965.965 0 0 1 19 17H8Z"></path></svg>
