<svg xmlns="http://www.w3.org/2000/svg" viewBox="0 0 24 24"><path d="m10.65 20.312-1.725-1.575a68.234 68.234 0 0 1-4.787-4.813C2.713 12.333 2 10.58 2 8.662c0-1.566.525-2.875 1.575-3.925 1.05-1.05 2.358-1.575 3.925-1.575a5.73 5.73 0 0 1 2.5.562c.783.376 1.45.888 2 1.538a5.962 5.962 0 0 1 2-1.538 5.721 5.721 0 0 1 2.5-.562c1.567 0 2.875.525 3.925 1.575C21.475 5.787 22 7.096 22 8.662c0 1.917-.708 3.675-2.125 5.275a59.863 59.863 0 0 1-4.825 4.825l-1.7 1.55c-.383.35-.833.525-1.35.525-.517 0-.967-.175-1.35-.525Z"></path></svg>
